<svg width="62" height="62" viewBox="0 0 62 62" fill="none" xmlns="http://www.w3.org/2000/svg">
<circle cx="31" cy="31" r="30.5" fill="#B569EB" fill-opacity="0.15" stroke="#B569EB"/>
<path d="M37.668 17.666H24.3346C20.6527 17.666 17.668 20.6508 17.668 24.3327V37.666C17.668 41.3479 20.6527 44.3327 24.3346 44.3327H37.668C41.3499 44.3327 44.3346 41.3479 44.3346 37.666V24.3327C44.3346 20.6508 41.3499 17.666 37.668 17.666Z" stroke="#B569EB" stroke-width="2" stroke-linecap="round" stroke-linejoin="round"/>
<path d="M36.3316 30.1604C36.4962 31.2701 36.3067 32.4034 35.79 33.3991C35.2733 34.3948 34.4558 35.2023 33.4538 35.7066C32.4518 36.211 31.3162 36.3865 30.2087 36.2083C29.1011 36.0301 28.078 35.5072 27.2848 34.714C26.4915 33.9207 25.9686 32.8976 25.7904 31.79C25.6122 30.6825 25.7877 29.5469 26.2921 28.5449C26.7964 27.5429 27.6039 26.7254 28.5996 26.2087C29.5954 25.6921 30.7286 25.5025 31.8383 25.6671C32.9702 25.8349 34.0181 26.3624 34.8272 27.1715C35.6364 27.9806 36.1638 29.0285 36.3316 30.1604Z" stroke="#B569EB" stroke-width="2" stroke-linecap="round" stroke-linejoin="round"/>
<path d="M38.332 23.666H38.3454" stroke="#B569EB" stroke-width="2" stroke-linecap="round" stroke-linejoin="round"/>
</svg>
