<svg width="62" height="62" viewBox="0 0 62 62" fill="none" xmlns="http://www.w3.org/2000/svg">
<circle cx="31" cy="31" r="30.5" fill="#B569EB" fill-opacity="0.15" stroke="#B569EB"/>
<path d="M44.3339 37.5595V41.5595C44.3354 41.9308 44.2593 42.2984 44.1106 42.6386C43.9618 42.9788 43.7436 43.2843 43.47 43.5353C43.1964 43.7863 42.8733 43.9775 42.5216 44.0964C42.1698 44.2154 41.7971 44.2596 41.4272 44.2261C37.3243 43.7803 33.3832 42.3783 29.9206 40.1328C26.699 38.0857 23.9677 35.3544 21.9206 32.1328C19.6672 28.6544 18.2649 24.6941 17.8272 20.5728C17.7939 20.2041 17.8377 19.8325 17.9559 19.4816C18.0741 19.1308 18.264 18.8084 18.5136 18.535C18.7632 18.2615 19.067 18.0431 19.4056 17.8935C19.7443 17.7439 20.1103 17.6665 20.4806 17.6661H24.4806C25.1276 17.6598 25.755 17.8889 26.2456 18.3109C26.7362 18.7328 27.0567 19.3187 27.1472 19.9595C27.3161 21.2396 27.6292 22.4964 28.0806 23.7061C28.26 24.1834 28.2988 24.702 28.1924 25.2007C28.0861 25.6993 27.839 26.157 27.4806 26.5195L25.7872 28.2128C27.6853 31.5509 30.4492 34.3147 33.7872 36.2128L35.4806 34.5195C35.8431 34.161 36.3008 33.9139 36.7994 33.8076C37.298 33.7013 37.8167 33.7401 38.2939 33.9195C39.5036 34.3709 40.7605 34.684 42.0406 34.8528C42.6883 34.9442 43.2798 35.2704 43.7026 35.7695C44.1254 36.2685 44.3501 36.9056 44.3339 37.5595Z" stroke="#B569EB" stroke-width="2" stroke-linecap="round" stroke-linejoin="round"/>
</svg>
