<svg width="38" height="54" viewBox="0 0 38 54" fill="none" xmlns="http://www.w3.org/2000/svg">
<path d="M0.332034 10.9997C0.332034 8.1707 1.45584 5.45759 3.45623 3.4572C5.45662 1.45681 8.16972 0.333008 10.9987 0.333008H26.9987C29.1654 0.332873 31.2807 0.992569 33.0632 2.2243C34.8458 3.45604 36.2109 5.2014 36.977 7.22813C37.7431 9.25485 37.8738 11.4668 37.3518 13.5697C36.8298 15.6725 35.6797 17.5665 34.0547 18.9997C36.0423 20.7485 37.3085 23.174 37.6071 25.8045C37.9058 28.4351 37.2155 31.0827 35.6705 33.2326C34.1255 35.3825 31.8362 36.881 29.2478 37.4367C26.6593 37.9925 23.9567 37.5658 21.6654 36.2397V42.9997C21.6653 44.782 21.2185 46.536 20.366 48.1012C19.5135 49.6664 18.2823 50.9931 16.7849 51.96C15.2876 52.9268 13.5719 53.5031 11.7945 53.636C10.0171 53.769 8.23469 53.4545 6.61017 52.7212C4.98564 51.9878 3.57077 50.8591 2.49482 49.4382C1.41887 48.0172 0.71615 46.3493 0.450854 44.5868C0.185559 42.8243 0.36615 41.0234 0.976129 39.3486C1.58611 37.6739 2.60603 36.1787 3.9427 34.9997C2.80782 33.9986 1.89892 32.7676 1.2764 31.3883C0.653866 30.0089 0.331951 28.513 0.332034 26.9997C0.331951 25.4864 0.653866 23.9904 1.2764 22.6111C1.89892 21.2318 2.80782 20.0007 3.9427 18.9997C2.80782 17.9986 1.89892 16.7676 1.2764 15.3883C0.653866 14.0089 0.331951 12.513 0.332034 10.9997ZM16.332 21.6663H10.9987C9.58421 21.6663 8.22766 22.2282 7.22746 23.2284C6.22727 24.2286 5.66537 25.5852 5.66537 26.9997C5.66537 28.4142 6.22727 29.7707 7.22746 30.7709C8.22766 31.7711 9.58421 32.333 10.9987 32.333H16.332V21.6663ZM21.6654 26.9997C21.6654 28.4142 22.2273 29.7707 23.2275 30.7709C24.2277 31.7711 25.5842 32.333 26.9987 32.333C28.4132 32.333 29.7697 31.7711 30.7699 30.7709C31.7701 29.7707 32.332 28.4142 32.332 26.9997C32.332 25.5852 31.7701 24.2286 30.7699 23.2284C29.7697 22.2282 28.4132 21.6663 26.9987 21.6663C25.5842 21.6663 24.2277 22.2282 23.2275 23.2284C22.2273 24.2286 21.6654 25.5852 21.6654 26.9997ZM26.9987 16.333C28.4132 16.333 29.7697 15.7711 30.7699 14.7709C31.7701 13.7707 32.332 12.4142 32.332 10.9997C32.332 9.58519 31.7701 8.22863 30.7699 7.22844C29.7697 6.22824 28.4132 5.66634 26.9987 5.66634H21.6654V16.333H26.9987ZM10.9987 5.66634C9.58421 5.66634 8.22766 6.22824 7.22746 7.22844C6.22727 8.22863 5.66537 9.58519 5.66537 10.9997C5.66537 12.4142 6.22727 13.7707 7.22746 14.7709C8.22766 15.7711 9.58421 16.333 10.9987 16.333H16.332V5.66634H10.9987ZM16.332 37.6663H10.9987C9.94387 37.6663 8.91272 37.9791 8.03566 38.5652C7.1586 39.1512 6.47501 39.9842 6.07134 40.9587C5.66768 41.9332 5.56206 43.0056 5.76785 44.0402C5.97363 45.0747 6.48158 46.025 7.22746 46.7709C7.97334 47.5168 8.92365 48.0247 9.95822 48.2305C10.9928 48.4363 12.0651 48.3307 13.0397 47.927C14.0142 47.5234 14.8472 46.8398 15.4332 45.9627C16.0192 45.0857 16.332 44.0545 16.332 42.9997V37.6663Z" fill="#B569EB"/>
</svg>
