<svg width="52" height="52" viewBox="0 0 52 52" fill="none" xmlns="http://www.w3.org/2000/svg">
<path d="M50.268 23.467L28.5346 1.73366C27.868 1.06699 26.9346 0.666992 26.0013 0.666992C25.068 0.666992 24.1346 1.06699 23.468 1.73366L18.8013 6.40033L24.268 11.867C24.8013 11.6003 25.3346 11.467 26.0013 11.467C28.268 11.467 30.0013 13.2003 30.0013 15.467C30.0013 16.1337 29.868 16.667 29.6013 17.2003L34.9346 22.5337C35.468 22.267 36.0013 22.1337 36.668 22.1337C38.9346 22.1337 40.668 23.867 40.668 26.1337C40.668 28.4003 38.9346 30.1337 36.668 30.1337C34.4013 30.1337 32.668 28.4003 32.668 26.1337C32.668 25.467 32.8013 24.9337 33.068 24.4003L27.7346 19.067C27.6013 19.067 27.468 19.2003 27.3346 19.2003V33.067C28.9346 33.6003 30.0013 35.067 30.0013 36.8003C30.0013 39.067 28.268 40.8003 26.0013 40.8003C23.7346 40.8003 22.0013 39.067 22.0013 36.8003C22.0013 35.067 23.068 33.6003 24.668 33.067V19.067C23.068 18.5337 22.0013 17.067 22.0013 15.3337C22.0013 14.667 22.1346 14.1337 22.4013 13.6003L16.9346 8.13366L1.73464 23.467C1.06797 24.1337 0.667969 25.067 0.667969 26.0003C0.667969 26.9337 1.06797 27.867 1.73464 28.5337L23.468 50.267C24.1346 50.9337 25.068 51.3337 26.0013 51.3337C26.9346 51.3337 27.868 50.9337 28.5346 50.267L50.268 28.5337C50.9346 27.867 51.3346 26.9337 51.3346 26.0003C51.3346 25.067 50.9346 24.1337 50.268 23.467Z" fill="#B569EB"/>
</svg>
