<svg width="400" height="367" viewBox="0 0 400 367" fill="none" xmlns="http://www.w3.org/2000/svg">
<path d="M399.936 360.024C399.936 363.348 310.404 366.052 199.973 366.052C89.5417 366.052 0 363.348 0 360.024C0 356.7 89.5129 353.986 199.973 353.986C310.433 353.986 399.936 356.69 399.936 360.024Z" fill="#F5F5F5"/>
<path d="M150.114 121.018C150.114 121.018 121.01 136.093 112.25 173.844C105.865 201.378 107.798 253.339 119.306 257.509C130.813 261.678 132.096 229.502 132.192 218.066C132.288 206.629 142.723 192.666 152.019 191.83C152.019 191.83 153.838 131.452 150.114 121.018Z" fill="#B569EB"/>
<path opacity="0.2" d="M154.47 128.502C147.587 131.196 141.929 136.369 137.343 142.151C132.46 148.515 128.444 155.531 125.405 163.008C122.033 170.995 119.576 179.357 118.081 187.926C116.684 196.954 116.002 206.083 116.042 215.224C115.888 226.405 115.62 238.048 119.871 248.59C120.034 249.013 120.713 248.826 120.541 248.403C116.865 239.218 116.645 229.188 116.712 219.404C116.788 210.17 116.922 200.897 118.196 191.742C120.474 175.477 126.247 159.025 135.639 145.632C140.512 138.689 146.763 132.288 154.671 129.19C155.092 129.023 154.91 128.335 154.489 128.502H154.47Z" fill="black"/>
<path d="M249.823 121.018C249.823 121.018 278.926 136.093 287.686 173.844C294.072 201.378 292.138 253.339 280.631 257.509C269.123 261.678 267.84 229.502 267.745 218.066C267.649 206.629 257.214 192.666 247.918 191.83C247.918 191.83 246.099 131.452 249.823 121.018Z" fill="#B569EB"/>
<path opacity="0.2" d="M245.285 129.18C252.207 131.894 257.865 137.165 262.422 143.056C267.186 149.372 271.102 156.318 274.063 163.706C277.382 171.654 279.795 179.969 281.253 188.487C282.775 197.455 283.082 206.571 283.168 215.657C283.311 226.641 283.541 238.038 279.396 248.393C279.233 248.816 279.903 249.003 280.066 248.58C283.79 239.277 283.981 229.09 283.895 219.177C283.819 209.826 283.656 200.435 282.335 191.162C281.058 182.333 278.757 173.693 275.48 165.427C272.632 157.959 268.865 150.897 264.269 144.413C259.416 137.657 253.222 131.54 245.467 128.502C245.046 128.335 244.864 129.023 245.285 129.19V129.18Z" fill="black"/>
<path d="M239.817 235.747H159.399C159.399 235.747 144.675 177.63 150.448 112.463C152.005 95.1941 156.272 78.2979 163.085 62.4295C163.18 62.1836 163.286 61.9378 163.391 61.7018C165.076 57.7684 166.847 54.0611 168.666 50.5308C175.81 36.6413 184.718 23.7878 195.156 12.3076C195.754 11.6077 196.49 11.0468 197.315 10.6626C198.141 10.2784 199.037 10.0797 199.943 10.0797C200.849 10.0797 201.745 10.2784 202.571 10.6626C203.396 11.0468 204.132 11.6077 204.73 12.3076C215.501 24.1556 224.643 37.4628 231.9 51.8584C233.719 55.4673 235.49 59.2729 237.165 63.2653L237.462 63.9734C243.887 79.3984 247.93 95.758 249.448 112.463C255.211 177.669 239.817 235.747 239.817 235.747Z" fill="#B569EB"/>
<g opacity="0.5">
<path d="M239.817 235.747H159.399C159.399 235.747 144.675 177.63 150.448 112.463C152.005 95.1941 156.272 78.2979 163.085 62.4295C163.18 62.1836 163.286 61.9378 163.391 61.7018C165.076 57.7684 166.847 54.0611 168.666 50.5308C175.81 36.6413 184.718 23.7878 195.156 12.3076C195.754 11.6077 196.49 11.0468 197.315 10.6626C198.141 10.2784 199.037 10.0797 199.943 10.0797C200.849 10.0797 201.745 10.2784 202.571 10.6626C203.396 11.0468 204.132 11.6077 204.73 12.3076C215.501 24.1556 224.643 37.4628 231.9 51.8584C233.719 55.4673 235.49 59.2729 237.165 63.2653L237.462 63.9734C243.887 79.3984 247.93 95.758 249.448 112.463C255.211 177.669 239.817 235.747 239.817 235.747Z" fill="white"/>
</g>
<path d="M230.925 227.467H170.621V228.411H230.925V227.467Z" fill="#B569EB"/>
<path d="M241.646 257.873H160.357C154.565 249.307 160.692 235.747 160.692 235.747H239.999C239.999 235.747 246.098 246.81 241.646 257.873Z" fill="#263238"/>
<path d="M221.11 265.641H180.461C177.589 261.354 180.633 254.578 180.633 254.578H220.287C220.287 254.578 223.332 260.105 221.11 265.641Z" fill="#263238"/>
<path d="M221.131 265.641H180.597C172.392 270.116 151.981 280.795 154.834 298.889H247.937C250.79 280.795 229.336 270.106 221.131 265.641Z" fill="#B569EB"/>
<path d="M250.742 295.064H151.339V302.94H250.742V295.064Z" fill="#263238"/>
<path d="M231.901 51.8587C224.568 57.2475 213.347 63.2853 199.944 63.2853C188.322 63.2172 177.151 58.6527 168.658 50.5016C169.424 49.0135 170.196 47.5647 170.975 46.1552L171.348 45.4963C177.986 33.5036 185.974 22.3544 195.148 12.2784C195.746 11.5785 196.482 11.0177 197.307 10.6334C198.133 10.2492 199.029 10.0505 199.935 10.0505C200.841 10.0505 201.737 10.2492 202.562 10.6334C203.388 11.0177 204.124 11.5785 204.722 12.2784C213.923 22.3768 221.931 33.5564 228.579 45.5848L228.952 46.2634C229.954 48.0793 230.937 49.9444 231.901 51.8587Z" fill="#B569EB"/>
<path opacity="0.2" d="M228.961 46.2929C226.607 48.0281 224.112 49.5514 221.503 50.8459C212.309 55.4079 201.965 56.9331 191.892 55.212C184.342 53.8753 177.188 50.788 170.974 46.1847L171.347 45.5259C173.872 47.407 176.564 49.0369 179.389 50.3935C188.57 54.838 198.876 56.2137 208.857 54.327C215.974 52.9417 222.709 49.9711 228.588 45.6242L228.961 46.2929Z" fill="black"/>
<path d="M238.488 122.867C234.802 84.6337 231.92 69.3326 231.585 67.6511C232.973 66.8742 234.275 66.0876 235.415 65.3205C236.114 64.878 236.784 64.4257 237.425 63.9733L237.128 63.2653C236.449 63.7373 235.75 64.2487 235.022 64.6814C227.363 69.6473 215.061 75.577 200.241 75.577C188.562 75.5838 177.162 71.9038 167.586 65.0354C166.006 63.9143 164.599 62.7835 163.345 61.7018C163.24 61.9378 163.134 62.1836 163.039 62.4295C164.254 63.4718 165.623 64.5535 167.136 65.6451C168.093 66.3334 169.175 67.0513 170.314 67.7593C169.903 69.8833 167.059 85.3123 163.441 122.827C160.569 152.132 163.192 181.288 165.853 200.592C167.433 212.438 169.613 224.192 172.382 235.806C172.402 235.882 172.445 235.949 172.506 235.998C172.566 236.046 172.641 236.072 172.717 236.071H172.804C172.891 236.046 172.966 235.987 173.012 235.906C173.059 235.826 173.073 235.73 173.052 235.639C170.289 224.048 168.116 212.317 166.542 200.493C163.881 181.239 161.306 152.151 164.13 122.916C167.634 86.5906 170.41 71.0044 170.946 68.1231C179.824 73.5339 189.957 76.3873 200.28 76.3833C211.003 76.2444 221.526 73.3867 230.915 68.0641C231.394 70.5618 234.199 86.0596 237.76 122.985C240.584 152.22 238.009 181.308 235.348 200.562C233.774 212.386 231.601 224.117 228.838 235.707C228.817 235.799 228.831 235.894 228.878 235.975C228.924 236.056 228.999 236.115 229.087 236.14H229.173C229.249 236.14 229.324 236.114 229.385 236.066C229.445 236.018 229.489 235.951 229.508 235.875C232.277 224.261 234.457 212.507 236.037 200.66C238.737 181.328 241.322 152.171 238.488 122.867Z" fill="#B569EB"/>
<path d="M200.28 163.45C195.009 163.452 189.857 161.849 185.474 158.842C181.091 155.836 177.674 151.562 175.657 146.561C173.639 141.56 173.11 136.056 174.138 130.747C175.166 125.437 177.704 120.56 181.43 116.732C185.157 112.904 189.905 110.298 195.074 109.242C200.244 108.186 205.602 108.729 210.47 110.802C215.339 112.874 219.5 116.383 222.427 120.885C225.354 125.387 226.915 130.68 226.913 136.093C226.906 143.346 224.097 150.3 219.104 155.429C214.111 160.558 207.341 163.443 200.28 163.45ZM200.28 109.444C195.148 109.444 190.132 111.007 185.866 113.935C181.599 116.864 178.274 121.026 176.31 125.895C174.346 130.765 173.833 136.123 174.834 141.292C175.835 146.462 178.306 151.21 181.934 154.937C185.562 158.664 190.185 161.202 195.218 162.23C200.251 163.259 205.467 162.731 210.208 160.714C214.949 158.697 219.001 155.281 221.852 150.899C224.702 146.516 226.224 141.364 226.224 136.093C226.216 129.028 223.48 122.254 218.617 117.258C213.753 112.262 207.158 109.452 200.28 109.444Z" fill="#B569EB"/>
<path d="M220.45 136.084C220.45 141.579 218.325 146.849 214.542 150.735C210.759 154.62 205.628 156.803 200.279 156.803H199.809C196.396 156.733 193.057 155.765 190.111 153.991C187.834 152.622 185.838 150.812 184.233 148.661C181.546 145.054 180.095 140.635 180.107 136.094C180.108 135.289 180.153 134.484 180.241 133.684C180.775 129.057 182.81 124.749 186.017 121.455C189.225 118.16 193.419 116.07 197.923 115.522C198.705 115.431 199.492 115.385 200.279 115.384C205.543 115.39 210.598 117.508 214.364 121.287C218.13 125.065 220.311 130.206 220.44 135.612C220.45 135.769 220.45 135.926 220.45 136.084Z" fill="#B569EB"/>
<path opacity="0.1" d="M212.504 119.652L184.233 148.69C181.546 145.083 180.095 140.665 180.107 136.123C180.108 135.318 180.153 134.513 180.241 133.714L197.923 115.551C198.705 115.46 199.492 115.414 200.279 115.413C204.696 115.408 208.993 116.897 212.504 119.652Z" fill="white"/>
<path opacity="0.1" d="M220.441 135.602L199.81 156.793C196.396 156.723 193.057 155.755 190.112 153.981L217.694 125.66C219.425 128.677 220.371 132.101 220.441 135.602Z" fill="white"/>
<path d="M195.455 317.74L191.923 323.335L183.058 337.388L179.286 343.357L169.205 359.326H165.27L175.514 337.388L179.286 329.304L181.66 324.21L184.685 317.74H195.455Z" fill="#B569EB"/>
<path opacity="0.2" d="M195.455 317.74L191.923 323.335L183.058 337.388L179.286 343.357L169.205 359.326H165.27L175.514 337.388L179.286 329.304L181.66 324.21L184.685 317.74H195.455Z" fill="black"/>
<path d="M237.607 317.74L236.468 319.549L225.209 337.388L221.437 343.357L211.356 359.326H207.431L217.665 337.388L221.437 329.304L225.563 320.474L226.837 317.74H237.607Z" fill="#B569EB"/>
<path opacity="0.2" d="M237.607 317.74L236.468 319.549L225.209 337.388L221.437 343.357L211.356 359.326H207.431L217.665 337.388L221.437 329.304L225.563 320.474L226.837 317.74H237.607Z" fill="black"/>
<path d="M241.666 302.94H158.184V317.739H241.666V302.94Z" fill="#B569EB"/>
<path opacity="0.2" d="M241.666 302.94H158.184V317.739H241.666V302.94Z" fill="white"/>
<path d="M193.3 359.326H189.365L179.284 343.357L175.512 337.388L167.939 325.381L163.114 317.74H173.885L177.092 324.594L179.284 329.304L183.056 337.388L193.3 359.326Z" fill="#B569EB"/>
<path d="M235.452 359.326H231.518L221.437 343.357L217.665 337.388L207.938 321.968L205.267 317.74H216.037L217.626 321.142L221.437 329.304L225.209 337.388L235.452 359.326Z" fill="#B569EB"/>
<path d="M142.167 340.495L130.554 341.39L108.899 290.511L98.3295 263.459L125.538 250.685L128.831 269.664L128.927 269.978L142.167 340.495Z" fill="#263238"/>
<path d="M131.473 338.912L135.647 350.181H141.419L140.165 338.912H131.473Z" fill="#B55B52"/>
<path d="M143.967 344.252L143.478 338.499H128.017L129.463 344.252H143.967Z" fill="#263238"/>
<path d="M159.237 358.157C158.433 354.489 156.71 353.387 154.766 353.24C152.823 353.092 145.193 350.634 145.193 350.634C145.193 350.634 143.374 348.303 141.986 347.831C141.53 347.732 141.057 347.764 140.619 347.926C140.181 348.087 139.796 348.371 139.506 348.746L135.83 348.284C135.83 348.284 134.528 346.622 133.915 348.077C133.274 349.759 133.484 356.996 133.523 358.137L159.237 358.157Z" fill="#B569EB"/>
<path d="M158.634 357.203H154.135L134.452 357.104C134.401 357.104 134.352 357.084 134.316 357.047C134.28 357.01 134.26 356.96 134.26 356.908C134.26 356.855 134.28 356.805 134.316 356.769C134.352 356.732 134.401 356.711 134.452 356.711H135.792C135.786 356.695 135.786 356.678 135.792 356.662C136.749 354.538 135.629 352.394 133.734 351.322C133.513 351.204 133.734 350.86 133.925 350.988C134.937 351.47 135.733 352.33 136.151 353.393C136.569 354.455 136.577 355.642 136.175 356.711H138.951L158.634 356.819C158.677 356.829 158.714 356.853 158.742 356.888C158.769 356.923 158.783 356.966 158.783 357.011C158.783 357.055 158.769 357.099 158.742 357.133C158.714 357.168 158.677 357.193 158.634 357.203Z" fill="black"/>
<path d="M144.34 352.246C144.514 351.949 144.748 351.694 145.026 351.497C145.304 351.3 145.62 351.166 145.952 351.104C146.284 351.042 146.626 351.052 146.953 351.136C147.281 351.219 147.588 351.373 147.853 351.587C148.054 351.735 148.246 351.401 148.045 351.253C147.736 351.012 147.381 350.841 147.003 350.751C146.625 350.66 146.233 350.652 145.852 350.727C145.471 350.802 145.11 350.959 144.791 351.187C144.473 351.414 144.205 351.709 144.005 352.05C143.861 352.246 144.196 352.443 144.34 352.246Z" fill="white"/>
<path d="M146.455 352.905C146.631 352.608 146.866 352.353 147.145 352.156C147.424 351.959 147.74 351.825 148.073 351.762C148.406 351.7 148.748 351.711 149.076 351.794C149.405 351.878 149.712 352.032 149.979 352.246C150.17 352.394 150.361 352.06 150.17 351.912C149.861 351.671 149.507 351.499 149.13 351.408C148.752 351.316 148.36 351.308 147.979 351.382C147.599 351.456 147.237 351.612 146.918 351.838C146.6 352.065 146.331 352.358 146.13 352.699C145.986 352.905 146.321 353.102 146.455 352.905Z" fill="white"/>
<path d="M148.649 353.555C148.826 353.259 149.062 353.006 149.342 352.811C149.621 352.616 149.937 352.483 150.269 352.422C150.602 352.361 150.943 352.372 151.271 352.455C151.599 352.539 151.906 352.692 152.172 352.906C152.363 353.053 152.555 352.719 152.363 352.561C152.054 352.322 151.699 352.152 151.321 352.062C150.944 351.973 150.552 351.965 150.172 352.04C149.791 352.115 149.43 352.271 149.112 352.498C148.793 352.725 148.525 353.018 148.323 353.358C148.18 353.564 148.505 353.761 148.649 353.555Z" fill="white"/>
<path d="M105.712 298.024L107.675 311.555L108.364 316.432L114.204 357.34H110.7L102.304 316.432L101.309 311.555L98.5322 298.024H105.712Z" fill="#B569EB"/>
<path d="M92.011 298.024L93.964 311.555L94.6629 316.432L100.503 357.34H96.9893L88.5933 316.432L87.5976 311.555L84.8213 298.024H92.011Z" fill="#B569EB"/>
<g opacity="0.2">
<path d="M92.0117 298.024L93.9647 311.555L94.6635 316.432L100.503 357.34H96.9899L88.5939 316.432L87.5982 311.555L84.8219 298.024H92.0117Z" fill="black"/>
</g>
<path d="M26.7959 287.748L21.9134 311.555L20.9178 316.432L12.5217 357.34H9.00824L14.8577 316.432L15.547 311.555L18.9935 287.748H26.7959Z" fill="#B569EB"/>
<path d="M40.5052 287.748L35.6227 311.555L34.6175 316.432L26.231 357.34H22.7175L28.5574 316.432L29.2563 311.555L32.7028 287.748H40.5052Z" fill="#B569EB"/>
<g opacity="0.2">
<path d="M40.5072 287.748L35.6247 311.555L34.6194 316.433L26.233 357.34H22.7195L28.5594 316.433L29.2582 311.555L32.7047 287.748H40.5072Z" fill="black"/>
</g>
<path d="M18.9355 298.211H105.911L104.179 291.2C101.307 279.449 93.0925 271.533 83.8827 271.533H12.3202L18.9355 298.211Z" fill="#B569EB"/>
<path d="M7.53327 253.015L15.7761 284.483L98.6929 284.581L93.5806 265.042C90.1724 252.003 78.9138 242.425 65.8172 242.189H65.7406C64.7832 238.422 55.4011 202.854 34.368 203.503C12.1573 204.182 16.9728 242.189 16.9728 242.189H13.22C9.09376 242.218 6.15467 247.745 7.53327 253.015Z" fill="#B569EB"/>
<g opacity="0.2">
<path d="M7.53266 253.015L15.7755 284.483L98.6922 284.581L93.58 265.042C90.1718 252.003 78.9132 242.425 65.8166 242.189H65.74C64.7826 238.422 55.4005 202.854 34.3674 203.503C12.1567 204.182 16.9722 242.189 16.9722 242.189H13.2194C9.09315 242.218 6.15406 247.745 7.53266 253.015Z" fill="black"/>
</g>
<path d="M48.0872 200.917C48.0872 200.917 50.4423 231.293 54.1951 241.009C62.8113 263.302 77.8323 235.954 77.8323 235.954L67.8853 221.312L65.0132 198.793L48.0872 200.917Z" fill="#FF8B7B"/>
<path d="M67.3314 221.135L63.7892 221.902C63.694 221.924 63.6112 221.984 63.5592 222.069C63.5071 222.154 63.49 222.256 63.5115 222.354C63.5331 222.452 63.5917 222.537 63.6742 222.59C63.7568 222.644 63.8567 222.661 63.9519 222.639L67.4942 221.921C67.5894 221.901 67.6726 221.842 67.7256 221.758C67.7785 221.674 67.7969 221.572 67.7766 221.474C67.7563 221.376 67.699 221.291 67.6173 221.236C67.5356 221.182 67.4362 221.163 67.341 221.184L67.3314 221.135Z" fill="#742823"/>
<path d="M89.6944 194.525C89.6944 194.525 99.402 223.633 102.848 230.909C106.295 238.186 92.6143 242.503 84.2949 240.124C75.9755 237.744 77.287 201.773 77.287 201.773L89.6944 194.525Z" fill="#FF8B7B"/>
<path d="M70.7192 163.195C70.7192 163.195 59.6425 190.503 65.5015 207.899L93.2649 200.111C93.2649 200.111 93.399 187.327 89.9812 177.149C84.6391 161.169 70.7192 163.195 70.7192 163.195Z" fill="#B569EB"/>
<path d="M27.4655 258.473C21.7214 254.54 21.5778 237.557 22.6788 222.089C22.7362 218.156 22.8989 213.681 23.2245 208.902C23.55 204.123 24.0574 199.068 24.8041 193.876C25.853 186.214 27.4985 178.651 29.7249 171.259C31.2088 166.441 38.9155 161.425 45.9042 158.997C50.7714 157.494 55.8842 157.019 60.9348 157.6C64.6678 158.554 68.3492 159.709 71.9635 161.062C81.1063 164.395 86.8983 168.997 86.3239 171.593C85.9984 173.009 86.3239 180.63 84.6102 189.904C83.7007 194.909 83.1168 200.317 82.303 205.755C82.303 205.755 82.303 205.804 82.303 205.854C82.303 205.903 82.303 206.286 82.2551 206.69C82.0158 211.164 81.4701 230.428 88.5067 243.703C99.0855 263.616 35.6797 264.206 27.4655 258.473Z" fill="#B569EB"/>
<g opacity="0.2">
<path d="M27.4655 258.473C21.7214 254.54 21.5778 237.557 22.6788 222.089C22.7362 218.156 22.8989 213.681 23.2245 208.902C23.55 204.123 24.0574 199.068 24.8041 193.876C25.853 186.214 27.4985 178.651 29.7249 171.259C31.2088 166.441 38.9155 161.425 45.9042 158.997C50.7714 157.494 55.8842 157.019 60.9348 157.6C64.6678 158.554 68.3492 159.709 71.9635 161.062C81.1063 164.395 86.8983 168.997 86.3239 171.593C85.9984 173.009 86.3239 180.63 84.6102 189.904C83.7007 194.909 83.1168 200.317 82.303 205.755C82.303 205.755 82.303 205.804 82.303 205.854C82.303 205.903 82.303 206.286 82.2551 206.69C82.0158 211.164 81.4701 230.428 88.5067 243.703C99.0855 263.616 35.6797 264.206 27.4655 258.473Z" fill="white"/>
</g>
<path d="M70.699 175.31C70.4075 175.306 70.1166 175.283 69.8278 175.242C61.2691 174.012 54.0889 157.541 54.0219 157.384C54.0155 157.37 54.0119 157.354 54.0113 157.339C54.0107 157.323 54.0132 157.307 54.0185 157.293C54.0239 157.278 54.032 157.265 54.0424 157.253C54.0529 157.242 54.0654 157.233 54.0793 157.226C54.1086 157.213 54.1419 157.211 54.1722 157.222C54.2026 157.233 54.2276 157.256 54.2421 157.285C54.3091 157.453 61.4318 173.796 69.8661 174.986C71.3213 175.192 72.3265 174.888 72.8531 174.081C74.9976 170.748 68.7939 160.019 68.7269 159.911C68.7073 159.888 68.6966 159.858 68.6966 159.827C68.6966 159.797 68.7073 159.767 68.7269 159.744C68.7375 159.733 68.7502 159.724 68.7642 159.718C68.7782 159.712 68.7931 159.709 68.8082 159.709C68.8234 159.709 68.8383 159.712 68.8523 159.718C68.8663 159.724 68.8789 159.733 68.8896 159.744C69.1481 160.196 75.2369 170.718 73.0063 174.18C72.7469 174.554 72.3989 174.854 71.9952 175.052C71.5916 175.25 71.1455 175.339 70.699 175.31Z" fill="white"/>
<path d="M87.118 341.548L75.8595 340.908L92.5175 279.419C92.5175 279.419 90.2677 279.871 86.6585 280.471C74.4426 282.438 46.6122 286.066 37.278 278.947C23.875 268.68 24.8323 255.022 24.8323 255.022C24.8323 255.022 131.223 223.053 133.971 253.861C135.206 267.687 87.118 341.548 87.118 341.548Z" fill="#263238"/>
<path d="M77.2582 339.305L76.1094 350.181H81.8727L85.9414 339.305H77.2582Z" fill="#B55B52"/>
<path d="M73.9252 344.252L74.423 338.499H89.8748L88.4291 344.252H73.9252Z" fill="#263238"/>
<path d="M100.827 358.157C100.023 354.489 98.3094 353.387 96.3564 353.24C94.4034 353.092 86.7828 350.634 86.7828 350.634C86.7828 350.634 84.9734 348.303 83.5853 347.831C83.13 347.732 82.6567 347.764 82.2186 347.926C81.7805 348.087 81.3951 348.371 81.1057 348.746L77.4199 348.284C77.4199 348.284 76.1274 346.622 75.5626 348.077C74.9116 349.759 75.1318 356.996 75.1701 358.137L100.827 358.157Z" fill="#B569EB"/>
<path d="M100.235 357.203H95.7353L76.0425 357.104C75.9917 357.104 75.943 357.084 75.9071 357.047C75.8712 357.01 75.851 356.96 75.851 356.908C75.851 356.855 75.8712 356.805 75.9071 356.769C75.943 356.732 75.9917 356.711 76.0425 356.711H77.3732C77.3681 356.695 77.3681 356.678 77.3732 356.662C78.3306 354.538 77.2009 352.394 75.3053 351.322C75.0851 351.204 75.3053 350.86 75.4968 350.988C76.5094 351.47 77.3059 352.329 77.7253 353.392C78.1447 354.454 78.1557 355.64 77.7562 356.711H80.5325L100.216 356.819C100.259 356.827 100.298 356.849 100.327 356.882C100.356 356.916 100.373 356.958 100.375 357.003C100.377 357.048 100.365 357.092 100.339 357.128C100.314 357.164 100.277 357.191 100.235 357.203Z" fill="black"/>
<path d="M85.9315 352.246C86.1071 351.949 86.342 351.694 86.6208 351.497C86.8996 351.3 87.2159 351.166 87.5488 351.103C87.8817 351.041 88.2237 351.052 88.5522 351.135C88.8807 351.219 89.1883 351.373 89.4546 351.587C89.646 351.735 89.8375 351.401 89.646 351.253C89.3374 351.011 88.9825 350.838 88.6044 350.747C88.2264 350.655 87.8338 350.647 87.4524 350.722C87.0709 350.797 86.7093 350.955 86.3911 351.183C86.0729 351.412 85.8054 351.707 85.606 352.05C85.4624 352.246 85.7879 352.443 85.9315 352.246Z" fill="white"/>
<path d="M88.057 352.905C88.2316 352.608 88.4656 352.353 88.7436 352.156C89.0215 351.959 89.337 351.825 89.6692 351.763C90.0014 351.701 90.3427 351.711 90.6705 351.795C90.9982 351.878 91.305 352.032 91.5705 352.246C91.7715 352.394 91.963 352.06 91.762 351.912C91.4534 351.671 91.0989 351.499 90.7216 351.408C90.3442 351.316 89.9524 351.308 89.5715 351.382C89.1905 351.456 88.829 351.612 88.5104 351.838C88.1918 352.065 87.9232 352.358 87.7219 352.699C87.5783 352.905 87.9134 353.102 88.057 352.905Z" fill="white"/>
<path d="M90.2497 353.555C90.4252 353.258 90.6598 353.004 90.9381 352.808C91.2164 352.612 91.5321 352.479 91.8642 352.417C92.1964 352.356 92.5374 352.368 92.8648 352.452C93.1921 352.536 93.4984 352.691 93.7632 352.906C93.9643 353.053 94.1462 352.719 93.9547 352.561C93.645 352.322 93.29 352.152 92.9125 352.062C92.535 351.973 92.1434 351.965 91.7629 352.04C91.3823 352.115 91.0213 352.271 90.703 352.498C90.3847 352.725 90.1161 353.018 89.9147 353.358C89.7711 353.564 90.1061 353.761 90.2497 353.555Z" fill="white"/>
<path opacity="0.2" d="M100.148 260.863L92.4893 279.439C92.4893 279.439 90.2395 279.891 86.6302 280.491C91.149 273.716 99.7748 261.365 100.148 260.863Z" fill="black"/>
<path d="M46.3158 191.654C46.3158 191.654 42.7162 223.122 44.717 227.468C46.7179 231.814 86.6397 234.538 86.6397 234.538L88.5544 236.83C88.5544 236.83 46.7849 248.866 31.8693 236.908C23.0712 229.867 24.8902 188.222 24.8902 188.222L46.3158 191.654Z" fill="#FF8B7B"/>
<path d="M30.2128 170.168C25.1866 177.651 23.09 190.454 22.1614 202.422L49.3025 200.878C49.3025 200.878 52.2894 188.488 51.2172 177.759C50.5662 170.984 47.3016 167.778 43.6349 166.362C37.8142 164.081 33.7837 164.887 30.2128 170.168Z" fill="#B569EB"/>
<path d="M62.3713 243.634H130.621L132.565 236.918H64.3148L62.3713 243.634Z" fill="#B569EB"/>
<g opacity="0.5">
<path d="M62.3713 243.634H130.621L132.565 236.918H64.3148L62.3713 243.634Z" fill="white"/>
</g>
<path d="M88.1535 240.163H126.304C126.958 240.168 127.595 239.95 128.115 239.542C128.635 239.134 129.008 238.561 129.176 237.911L136.835 208.302C136.951 207.851 136.965 207.379 136.875 206.922C136.784 206.465 136.593 206.036 136.315 205.667C136.038 205.298 135.681 204.999 135.273 204.795C134.865 204.59 134.417 204.485 133.963 204.487H95.2571C94.4053 204.483 93.5766 204.771 92.9022 205.305C92.2277 205.84 91.7459 206.59 91.5329 207.437L84.391 235.197C84.2349 235.786 84.2145 236.404 84.3312 237.003C84.448 237.602 84.6989 238.164 85.0639 238.646C85.4289 239.128 85.8981 239.516 86.4344 239.779C86.9706 240.042 87.5592 240.174 88.1535 240.163Z" fill="#B569EB"/>
<g opacity="0.5">
<path d="M88.1525 240.163H126.303C126.957 240.168 127.594 239.95 128.114 239.542C128.634 239.134 129.007 238.561 129.175 237.911L136.834 208.302C136.95 207.852 136.964 207.379 136.874 206.922C136.783 206.465 136.592 206.036 136.314 205.667C136.037 205.298 135.68 205 135.272 204.795C134.864 204.591 134.416 204.485 133.962 204.487H95.2561C94.4043 204.483 93.5757 204.771 92.9012 205.306C92.2267 205.84 91.7449 206.59 91.532 207.437L84.3901 235.197C84.2339 235.786 84.2135 236.405 84.3303 237.003C84.4471 237.602 84.6979 238.164 85.0629 238.646C85.428 239.128 85.8972 239.516 86.4334 239.779C86.9697 240.043 87.5582 240.174 88.1525 240.163Z" fill="white"/>
</g>
<path d="M91.2934 240.163H129.444C130.098 240.168 130.735 239.95 131.255 239.542C131.775 239.134 132.148 238.561 132.316 237.911L139.975 208.302C140.091 207.851 140.105 207.379 140.015 206.922C139.924 206.465 139.733 206.036 139.455 205.667C139.178 205.298 138.821 204.999 138.413 204.795C138.005 204.59 137.557 204.485 137.103 204.487H98.4353C97.5836 204.483 96.7549 204.771 96.0804 205.305C95.4059 205.84 94.9241 206.59 94.7112 207.437L87.598 235.197C87.4435 235.781 87.422 236.393 87.5352 236.986C87.6484 237.579 87.8933 238.138 88.2507 238.618C88.6082 239.099 89.0687 239.488 89.5964 239.756C90.1241 240.024 90.7048 240.163 91.2934 240.163Z" fill="#B569EB"/>
<g opacity="0.8">
<path d="M91.2939 240.163H129.445C130.099 240.168 130.736 239.95 131.256 239.542C131.776 239.134 132.149 238.561 132.317 237.911L139.976 208.302C140.092 207.852 140.105 207.379 140.015 206.922C139.925 206.465 139.734 206.036 139.456 205.667C139.178 205.298 138.822 205 138.414 204.795C138.006 204.591 137.557 204.485 137.103 204.487H98.4358C97.5841 204.483 96.7554 204.771 96.0809 205.306C95.4064 205.84 94.9246 206.59 94.7117 207.437L87.5985 235.197C87.444 235.781 87.4225 236.393 87.5357 236.986C87.6489 237.58 87.8937 238.138 88.2512 238.619C88.6087 239.099 89.0692 239.488 89.5969 239.756C90.1246 240.024 90.7053 240.163 91.2939 240.163Z" fill="white"/>
</g>
<path d="M110.479 222.649C110.354 223.17 110.345 223.712 110.456 224.236C110.566 224.76 110.791 225.251 111.115 225.672C111.438 226.092 111.851 226.431 112.322 226.662C112.792 226.894 113.308 227.011 113.83 227.006C114.988 226.936 116.09 226.469 116.958 225.679C117.826 224.889 118.41 223.822 118.617 222.649C118.742 222.129 118.75 221.586 118.64 221.061C118.53 220.537 118.305 220.045 117.981 219.624C117.658 219.203 117.245 218.863 116.775 218.631C116.304 218.398 115.788 218.28 115.266 218.283C114.107 218.355 113.005 218.824 112.137 219.616C111.269 220.408 110.685 221.476 110.479 222.649Z" fill="#B569EB"/>
<g opacity="0.5">
<path d="M110.479 222.649C110.353 223.169 110.345 223.712 110.455 224.236C110.565 224.76 110.79 225.251 111.114 225.671C111.437 226.092 111.85 226.431 112.321 226.662C112.792 226.893 113.308 227.011 113.829 227.005C114.987 226.936 116.089 226.469 116.957 225.679C117.825 224.889 118.41 223.822 118.616 222.649C118.742 222.129 118.75 221.585 118.639 221.061C118.529 220.537 118.304 220.045 117.981 219.624C117.658 219.203 117.245 218.863 116.774 218.631C116.304 218.398 115.788 218.279 115.265 218.283C114.107 218.354 113.005 218.824 112.137 219.616C111.269 220.407 110.685 221.476 110.479 222.649Z" fill="white"/>
</g>
<path d="M87.2716 132.052C86.8982 133.134 85.3568 133.38 85.3568 133.38C85.3568 133.38 86.812 135.258 86.0844 135.887C85.3568 136.517 83.7772 135.887 83.7772 135.887C83.9547 136.177 84.0712 136.502 84.119 136.841C84.1668 137.179 84.145 137.525 84.0548 137.854C83.7198 138.946 83.2889 138.533 83.2889 138.533L59.9677 134.688C60.3801 132.823 60.3801 130.888 59.9677 129.024C59.2305 126.437 58.2253 122.897 59.4412 122.268C60.657 121.639 61.241 122.268 61.241 122.268C61.241 122.268 61.1453 119.613 62.3994 119.397C62.7291 119.327 63.0691 119.328 63.3984 119.399C63.7278 119.47 64.0394 119.61 64.3141 119.81C64.3141 119.81 64.4673 117.941 65.6065 117.774C65.9347 117.742 66.2633 117.829 66.5359 118.019C66.8085 118.209 67.008 118.491 67.1 118.816C67.1 118.816 68.4116 116.977 69.704 116.948C70.9965 116.918 71.1688 118.433 71.1688 118.433C71.1688 118.433 73.2367 116.702 74.194 117.381C74.7972 117.888 75.2595 118.549 75.5343 119.298C75.5343 119.298 77.5448 117.174 78.4064 118.315C78.9483 119.09 79.2488 120.016 79.268 120.97C79.268 120.97 81.8625 119.003 82.5518 120.232C82.9596 121.082 83.0905 122.044 82.9251 122.976C82.9251 122.976 85.1462 121.727 85.7972 123.31C85.9719 123.803 86.0196 124.333 85.9357 124.85C85.8518 125.367 85.6392 125.853 85.3185 126.26C85.3185 126.26 87.3864 126.516 87.3098 127.765C87.2333 129.014 85.3951 130.115 85.3951 130.115C85.3951 130.115 87.5971 130.961 87.2716 132.052Z" fill="#263238"/>
<path d="M69.9541 155.742V155.82L68.3266 159.439C68.1104 160.186 67.9661 160.954 67.8958 161.73C67.8324 162.357 67.8164 162.989 67.848 163.618C68.4702 164.916 68.4032 167.552 65.512 167.07C61.8645 166.431 56.1108 159.734 56.1586 158.033C58.7243 153.224 61.1752 147.491 61.74 142.555L65.1099 147.934L69.9541 155.742Z" fill="#FF8B7B"/>
<g opacity="0.2">
<path d="M69.9074 155.83L68.2799 159.449C66.1737 157.964 64.192 155.22 64.0675 152.624C64.0005 150.756 65.0823 149.222 65.8004 149.251L69.9074 155.83Z" fill="black"/>
</g>
<path d="M62.505 133.302C62.9318 131.488 63.8005 129.816 65.0294 128.442C66.2583 127.069 67.807 126.038 69.5301 125.448C71.2531 124.859 73.0939 124.728 74.8795 125.07C76.665 125.411 78.3367 126.214 79.7374 127.401C86.1325 132.81 83.6913 143.666 79.3353 151.917C75.5059 159.184 65.5876 157.453 61.7103 149.684C59.1351 144.532 60.5807 141.188 62.4571 133.351" fill="#FF8B7B"/>
<path d="M76.1099 149.36C76.1099 149.36 72.5773 148.376 70.9402 145.947C70.9402 145.947 70.787 148.819 72.3667 150.432C73.9463 152.044 76.1099 149.36 76.1099 149.36Z" fill="white"/>
<path d="M62.2936 134.029C62.2936 134.029 64.6008 134.56 64.3519 136.625C64.103 138.69 63.8445 138.926 63.8445 138.926L66.4964 140.018C66.4964 140.018 67.0612 132.062 69.0525 132.515C71.0438 132.967 69.4642 129.073 70.7566 128.778C73.801 128.089 81.5652 129.407 83.7384 134.737C83.7384 134.737 83.7384 129.82 80.5121 126.664C77.2858 123.507 69.9812 121.589 66.3336 124.785C62.6861 127.981 62.2936 134.029 62.2936 134.029Z" fill="#263238"/>
<path d="M57.728 137.402C57.6987 139.431 58.4525 141.389 59.8246 142.849C61.6532 144.816 63.8742 143.41 64.4582 140.883C64.9752 138.66 64.6593 134.983 62.2946 133.999C59.9299 133.016 57.795 134.884 57.728 137.372" fill="#FF8B7B"/>
<path d="M72.6057 140.736C72.4142 141.365 72.6057 141.975 72.9791 142.103C73.3524 142.23 73.8503 141.827 74.0417 141.208C74.2332 140.588 74.0417 139.969 73.6684 139.841C73.295 139.713 72.7876 140.116 72.6057 140.736Z" fill="#263238"/>
<path d="M79.3074 142.8C79.1159 143.43 79.3074 144.039 79.6807 144.167C80.0541 144.295 80.5615 143.892 80.753 143.263C80.9444 142.633 80.753 142.024 80.37 141.896C79.9871 141.768 79.4988 142.171 79.3074 142.8Z" fill="black"/>
<path d="M82.4855 140.765C82.4341 140.744 82.3883 140.71 82.3517 140.668C82.3151 140.625 82.2888 140.574 82.2749 140.519C82.2422 140.296 82.1661 140.081 82.0509 139.888C81.9358 139.696 81.784 139.529 81.6047 139.398C81.2178 139.186 80.7717 139.116 80.341 139.201C80.2599 139.22 80.1751 139.205 80.1039 139.161C80.0327 139.118 79.9805 139.047 79.9581 138.965C79.9481 138.925 79.9462 138.882 79.9524 138.841C79.9587 138.799 79.9729 138.76 79.9943 138.724C80.0157 138.688 80.0438 138.657 80.0771 138.633C80.1103 138.608 80.148 138.591 80.1878 138.582C80.785 138.453 81.4073 138.551 81.9398 138.857C82.1938 139.031 82.41 139.257 82.5748 139.521C82.7395 139.785 82.8493 140.081 82.8971 140.391C82.9069 140.432 82.9084 140.474 82.9015 140.516C82.8946 140.557 82.8794 140.597 82.8569 140.632C82.8344 140.667 82.8052 140.697 82.7709 140.72C82.7366 140.743 82.6981 140.758 82.6578 140.765C82.6015 140.781 82.5418 140.781 82.4855 140.765Z" fill="#263238"/>
<path d="M72.0391 137.638C71.9884 137.623 71.9424 137.594 71.9056 137.556C71.8687 137.517 71.8422 137.469 71.8288 137.416C71.8153 137.364 71.8152 137.309 71.8286 137.256C71.842 137.204 71.8683 137.156 71.9051 137.117C72.3348 136.675 72.9066 136.409 73.5134 136.37C73.8171 136.374 74.1167 136.443 74.3934 136.571C74.6701 136.7 74.918 136.886 75.1218 137.117C75.1593 137.144 75.1906 137.18 75.2135 137.221C75.2363 137.262 75.2502 137.307 75.2541 137.354C75.258 137.401 75.2518 137.449 75.236 137.493C75.2202 137.537 75.1952 137.578 75.1627 137.611C75.1302 137.645 75.0909 137.67 75.0477 137.687C75.0045 137.703 74.9584 137.709 74.9126 137.705C74.8667 137.701 74.8223 137.687 74.7824 137.663C74.7424 137.64 74.708 137.608 74.6814 137.569C74.536 137.402 74.3595 137.266 74.1622 137.17C73.9649 137.073 73.7508 137.019 73.5326 137.009C73.0885 137.041 72.6706 137.237 72.355 137.559C72.3149 137.602 72.2639 137.631 72.2081 137.645C72.1522 137.659 72.0936 137.657 72.0391 137.638Z" fill="#263238"/>
<path d="M77.1804 141.06C77.1171 142.439 77.45 143.807 78.1377 144.993C79.2578 146.812 75.8879 147.009 75.8879 147.009L77.1804 141.06Z" fill="#BA4D3C"/>
</svg>
